<?xml version="1.0" encoding="UTF-8" standalone="no"?>
<svg
   version="1.1"
   width="375.07999"
   height="201.37807"
   viewBox="0 0 375.07999 201.37807"
   id="svg40"
   sodipodi:docname="logo-no-background.svg"
   inkscape:version="1.3.2 (091e20ef0f, 2023-11-25, custom)"
   xmlns:inkscape="http://www.inkscape.org/namespaces/inkscape"
   xmlns:sodipodi="http://sodipodi.sourceforge.net/DTD/sodipodi-0.dtd"
   xmlns="http://www.w3.org/2000/svg"
   xmlns:svg="http://www.w3.org/2000/svg">
  <defs
     id="defs40">
    <defs
       id="defs38" />
    <filter
       inkscape:menu-tooltip="In and out glow with a possible offset and colorizable flood"
       inkscape:menu="Shadows and Glows"
       inkscape:label="Cutout Glow"
       style="color-interpolation-filters:sRGB;"
       id="filter42"
       x="-0.068945153"
       y="-0.073258265"
       width="1.1666175"
       height="1.1770408">
      <feOffset
         dy="3"
         dx="3"
         id="feOffset42" />
      <feGaussianBlur
         stdDeviation="3"
         result="blur"
         id="feGaussianBlur42" />
      <feFlood
         flood-color="rgb(0,0,0)"
         flood-opacity="1"
         result="flood"
         id="feFlood42" />
      <feComposite
         in="flood"
         in2="SourceGraphic"
         operator="in"
         result="composite"
         id="feComposite42" />
      <feBlend
         in="blur"
         in2="composite"
         mode="normal"
         id="feBlend42" />
    </filter>
    <filter
       inkscape:menu-tooltip="In and out glow with a possible offset and colorizable flood"
       inkscape:menu="Shadows and Glows"
       inkscape:label="Cutout Glow"
       style="color-interpolation-filters:sRGB;"
       id="filter43"
       x="-0.04260355"
       y="-0.068949961"
       width="1.1029586"
       height="1.1666291">
      <feOffset
         dy="3"
         dx="3"
         id="feOffset43" />
      <feGaussianBlur
         stdDeviation="3"
         result="blur"
         id="feGaussianBlur43" />
      <feFlood
         flood-color="rgb(0,0,0)"
         flood-opacity="1"
         result="flood"
         id="feFlood43" />
      <feComposite
         in="flood"
         in2="SourceGraphic"
         operator="in"
         result="composite"
         id="feComposite43" />
      <feBlend
         in="blur"
         in2="composite"
         mode="normal"
         id="feBlend43" />
    </filter>
    <filter
       inkscape:menu-tooltip="In and out glow with a possible offset and colorizable flood"
       inkscape:menu="Shadows and Glows"
       inkscape:label="Cutout Glow"
       style="color-interpolation-filters:sRGB;"
       id="filter44"
       x="-0.042639725"
       y="-0.22164521"
       width="1.103046"
       height="1.5356426">
      <feOffset
         dy="3"
         dx="3"
         id="feOffset44" />
      <feGaussianBlur
         stdDeviation="3"
         result="blur"
         id="feGaussianBlur44" />
      <feFlood
         flood-color="rgb(0,0,0)"
         flood-opacity="1"
         result="flood"
         id="feFlood44" />
      <feComposite
         in="flood"
         in2="SourceGraphic"
         operator="in"
         result="composite"
         id="feComposite44" />
      <feBlend
         in="blur"
         in2="composite"
         mode="normal"
         id="feBlend44" />
    </filter>
  </defs>
  <sodipodi:namedview
     id="namedview40"
     pagecolor="#ffffff"
     bordercolor="#666666"
     borderopacity="1.0"
     inkscape:showpageshadow="2"
     inkscape:pageopacity="0.0"
     inkscape:pagecheckerboard="0"
     inkscape:deskcolor="#d1d1d1"
     inkscape:zoom="0.638"
     inkscape:cx="500"
     inkscape:cy="269.59248"
     inkscape:window-width="1920"
     inkscape:window-height="1050"
     inkscape:window-x="1920"
     inkscape:window-y="0"
     inkscape:window-maximized="1"
     inkscape:current-layer="svg40" />
  <path
     d="M 0,190.312 V 0 h 375.08 v 190.312 h -22.064 v -4.637 h 17.427 V 4.637 H 4.637 v 181.038 h 127.012 v 4.637 z"
     fill="#0063db"
     fill-rule="nonzero"
     stroke="none"
     stroke-width="1"
     stroke-linecap="butt"
     stroke-linejoin="miter"
     stroke-miterlimit="10"
     stroke-dasharray="none"
     stroke-dashoffset="0"
     font-family="none"
     font-weight="none"
     font-size="none"
     text-anchor="none"
     style="mix-blend-mode:normal;fill:#000080"
     data-fill-palette-color="tertiary"
     id="path1" />
  <g
     id="g40"
     transform="translate(16.00024,39.944276)"
     style="fill:#d40000;filter:url(#filter42)">
    <path
       d="m 86.304619,61.228087 c -0.36133,0 -0.72266,-0.108608 -1.034908,-0.33 -0.689242,-0.488736 -0.941964,-1.397282 -0.602565,-2.173202 2.326715,-5.32074 -1.388927,-8.223912 -13.48826,-15.818107 C 61.34361,36.725529 59.75522,30.385545 60.158322,26.157149 60.808925,19.293968 67.237674,12.995757 77.792478,8.8759682 c 0.925255,-0.3602857 1.958074,0.09712 2.315227,1.0150657 0.359242,0.9189891 -0.09399,1.9559861 -1.014021,2.3131381 -9.254643,3.611212 -14.85839,8.819167 -15.377411,14.290288 -0.438608,4.631498 2.798741,9.260908 9.363251,13.385918 8.351317,5.242418 14.593136,9.158566 15.679215,14.36861 3.013868,-3.693711 4.582416,-7.309099 4.674315,-10.791861 0.09816,-3.793965 -1.58839,-7.516917 -5.016848,-11.066514 -1.163357,-1.196775 -2.298518,-2.316271 -3.380419,-3.382508 -2.749659,-2.713108 -5.125456,-5.056531 -6.869447,-7.559733 -0.561837,-0.809338 -0.363419,-1.923612 0.444874,-2.486494 0.814559,-0.567058 1.922568,-0.363418 2.489626,0.444875 1.552884,2.232727 3.821117,4.468587 6.444415,7.057422 1.097566,1.082946 2.252568,2.221239 3.437856,3.439945 4.121877,4.26808 6.147831,8.857806 6.022514,13.64595 -0.149335,5.692514 -3.340735,11.479015 -9.484389,17.197636 -0.340444,0.318514 -0.778009,0.480381 -1.216617,0.480381 z"
       fill="#d90000"
       data-fill-palette-color="accent"
       id="path7"
       style="stroke-width:1.04431;fill:#d40000" />
    <path
       d="m 78.262416,15.543864 c -0.925255,0 -1.707441,-0.713261 -1.778454,-1.650004 -0.21095,-2.75488 0.320602,-5.1306769 1.624941,-7.2641947 0.469938,-0.7644322 1.435921,-1.0589265 2.248391,-0.6996852 3.31985,1.4745605 5.156785,3.7250406 5.460678,6.6908709 0.100253,0.981648 -0.614052,1.858865 -1.594656,1.961207 -0.965983,0.103386 -1.856776,-0.613008 -1.959118,-1.5957 -0.08459,-0.807249 -0.383261,-1.908992 -1.836935,-2.942855 -0.36133,1.071458 -0.484558,2.240037 -0.381172,3.576749 0.07623,0.983736 -0.661046,1.842156 -1.643738,1.917346 -0.04699,0.0042 -0.09503,0.0063 -0.139937,0.0063 z"
       fill="#d90000"
       data-fill-palette-color="accent"
       id="path8"
       style="stroke-width:1.04431;fill:#d40000" />
    <path
       d="m 88.684593,31.864283 c -0.383261,0 -0.771743,-0.124273 -1.097566,-0.378039 -0.778008,-0.607786 -0.914812,-1.730416 -0.30807,-2.508424 2.258834,-2.894817 5.44188,-4.167826 9.448883,-3.787699 1.539307,-0.05953 2.636873,-0.435476 3.265546,-1.117408 0.570194,-0.618229 0.859464,-1.604054 0.865734,-2.932412 -6.295083,-6.851693 -12.398009,-10.147524 -18.13125,-9.769485 -0.993136,0.04595 -1.834846,-0.684021 -1.898549,-1.6688015 -0.0637,-0.9847809 0.682976,-1.8348462 1.668801,-1.8975046 7.026093,-0.4657606 14.238072,3.3950401 21.457358,11.4288881 0.27048,0.302849 0.4313,0.689242 0.45323,1.095477 0.14725,2.642095 -0.45323,4.715043 -1.78472,6.162452 -1.31896,1.435921 -3.307315,2.201398 -5.905549,2.274499 -0.0825,-0.0042 -0.155601,-0.001 -0.231836,-0.0094 -2.847823,-0.296583 -4.873777,0.476204 -6.392199,2.420702 -0.350887,0.451141 -0.878261,0.687154 -1.409813,0.687154 z"
       fill="#d90000"
       data-fill-palette-color="accent"
       id="path9"
       style="stroke-width:1.04431;fill:#d40000" />
    <path
       d="m 92.497355,36.331825 c -0.897059,0 -1.669846,-0.672533 -1.773232,-1.585257 -0.112785,-0.979559 0.591077,-1.865131 1.571681,-1.976872 3.769946,-0.430254 5.257038,-2.228549 4.974031,-6.013115 -0.07415,-0.983737 0.663134,-1.842157 1.647915,-1.916302 0.970161,-0.06161 1.84111,0.664178 1.91421,1.648959 0.42712,5.692514 -2.460382,9.18363 -8.129921,9.830055 -0.06997,0.0084 -0.136804,0.01253 -0.204684,0.01253 z"
       fill="#d90000"
       data-fill-palette-color="accent"
       id="path10"
       style="stroke-width:1.04431;fill:#d40000" />
    <path
       d="m 62.482948,56.523487 c -0.527375,0 -1.050572,-0.231836 -1.403548,-0.677754 -0.611963,-0.773831 -0.482469,-1.898549 0.291362,-2.511557 0.77383,-0.611963 1.165445,-1.267788 1.200952,-2.007157 0.04699,-1.020287 -0.609875,-2.258834 -1.804562,-3.399217 -1.093388,-1.093388 -2.312094,-1.751301 -3.760546,-2.041619 -0.568103,-0.113829 -1.046395,-0.497089 -1.282409,-1.027597 -0.236013,-0.530508 -0.199462,-1.141427 0.09817,-1.640605 2.115765,-3.539154 2.755924,-6.513339 1.901682,-8.835876 -0.90333,-2.462474 -3.566311,-4.464409 -7.91167,-5.949413 C 32.610566,22.572045 21.113798,15.006046 15.557044,5.9017838 c -0.997312,3.7929205 0.238102,8.7189132 9.659833,14.3633892 0.847977,0.506488 1.12263,1.605098 0.616141,2.450987 -0.5044,0.846932 -1.60301,1.125762 -2.449942,0.614052 C 9.4562067,14.991426 10.533931,6.5147916 13.890331,0.8713604 c 0.340444,-0.57541277 0.956585,-0.89810342 1.650004,-0.86990715 0.669401,0.04281656 1.257345,0.45740616 1.524687,1.07354685 4.183491,9.6713209 15.590449,17.7375429 33.900272,23.9751839 5.418905,1.851555 8.821255,4.577195 10.114106,8.101728 1.058927,2.885419 0.680888,6.219889 -1.124718,9.935531 1.220794,0.536773 2.328803,1.301205 3.31254,2.284942 1.941365,1.854688 2.971051,4.040421 2.873931,6.123812 -0.08459,1.779498 -0.965984,3.385641 -2.550196,4.640897 -0.327912,0.258988 -0.720572,0.386393 -1.108009,0.386393 z"
       fill="#d90000"
       data-fill-palette-color="accent"
       id="path11"
       style="stroke-width:1.04431;fill:#d40000" />
    <path
       d="m 23.109467,30.673774 c -0.178576,0 -0.36133,-0.0282 -0.54095,-0.08563 -5.975521,-1.902726 -9.907334,-4.872733 -11.687876,-8.823343 -1.7377261,-3.856624 -1.3993709,-8.576888 1.004622,-14.0302556 0.39997,-0.9043693 1.458896,-1.3085158 2.355955,-0.9127237 0.903325,0.3978807 1.313738,1.4526301 0.914813,2.3549107 -1.980005,4.4852956 -2.320449,8.2260006 -1.017155,11.1187296 1.346111,2.98776 4.54691,5.305076 9.512586,6.888244 0.941965,0.299716 1.460985,1.304339 1.161269,2.245258 -0.242279,0.759211 -0.946142,1.244814 -1.703264,1.244814 z"
       fill="#d90000"
       data-fill-palette-color="accent"
       id="path12"
       style="stroke-width:1.04431;fill:#d40000" />
    <path
       d="m 30.890594,40.694937 c -6.93315,0 -14.938802,-3.253014 -18.501975,-16.65042 -0.252722,-0.954496 0.314336,-1.933011 1.267788,-2.186777 0.950318,-0.260032 1.930922,0.314336 2.187821,1.267788 2.739216,10.308347 8.392046,14.831238 17.257162,13.87152 0.974338,-0.09503 1.865131,0.600476 1.97165,1.58108 0.10652,0.980604 -0.60152,1.863042 -1.582124,1.97165 -0.841711,0.0919 -1.711618,0.145159 -2.600322,0.145159 z"
       fill="#d90000"
       data-fill-palette-color="accent"
       id="path13"
       style="stroke-width:1.04431;fill:#d40000" />
    <path
       d="m 38.161054,47.477706 c -6.873624,0 -11.970883,-2.968963 -15.188391,-8.859894 -0.474115,-0.86573 -0.153513,-1.952853 0.712217,-2.425924 0.861553,-0.470982 1.951809,-0.153513 2.422791,0.712217 3.128741,5.726976 8.36176,7.909576 16.013393,6.657453 0.96285,-0.152469 1.892283,0.501267 2.049973,1.476649 0.159779,0.973293 -0.500223,1.892283 -1.475605,2.049973 -1.587346,0.260032 -3.100545,0.389526 -4.534378,0.389526 z"
       fill="#d90000"
       data-fill-palette-color="accent"
       id="path14"
       style="stroke-width:1.04431;fill:#d40000" />
    <path
       d="m 46.040345,54.206172 c -6.810966,0 -11.517654,-2.792475 -14.016679,-8.324166 -0.406235,-0.900192 -0.0063,-1.958074 0.89497,-2.364309 0.901237,-0.40728 1.958075,-0.0042 2.363266,0.892882 2.171112,4.814252 6.328496,6.743085 13.089335,6.10397 0.965983,-0.102342 1.854688,0.625539 1.94972,1.609276 0.09503,0.983737 -0.62554,1.854688 -1.608232,1.948676 -0.924211,0.08877 -1.81396,0.133671 -2.67238,0.133671 z"
       fill="#d90000"
       data-fill-palette-color="accent"
       id="path15"
       style="stroke-width:1.04431;fill:#d40000" />
    <path
       d="m 56.643187,68.315794 c -0.204684,0 -0.41459,-0.03446 -0.618229,-0.110696 C 43.312617,63.518251 37.581464,57.818427 38.99441,51.264361 c 0.206773,-0.965983 1.152915,-1.586301 2.120987,-1.371174 0.964939,0.206772 1.580035,1.157091 1.371174,2.12203 -1.216617,5.659096 7.362359,10.103664 14.773801,12.836613 0.925255,0.340444 1.39937,1.369086 1.058927,2.294341 -0.266299,0.72266 -0.949275,1.169623 -1.676112,1.169623 z"
       fill="#d90000"
       data-fill-palette-color="accent"
       id="path16"
       style="stroke-width:1.04431;fill:#d40000" />
    <path
       d="m 59.205915,46.516944 c -0.665224,0 -1.301206,-0.370728 -1.610321,-1.007755 -0.42921,-0.888705 -0.05953,-1.95703 0.828135,-2.387284 3.396084,-1.646871 5.214222,-3.87751 5.556754,-6.81932 0.114874,-0.980604 1.027597,-1.674023 1.983138,-1.567504 0.980603,0.113829 1.682377,1.00149 1.567503,1.982093 -0.488735,4.191846 -3.028488,7.428151 -7.547201,9.62015 -0.250634,0.122184 -0.516932,0.17962 -0.778008,0.17962 z"
       fill="#d90000"
       data-fill-palette-color="accent"
       id="path17"
       style="stroke-width:1.04431;fill:#d40000" />
    <path
       d="m 66.829351,92.259649 c -0.155602,0 -0.316425,-0.02089 -0.476204,-0.06475 -0.950319,-0.261077 -1.507978,-1.245857 -1.245858,-2.198265 1.633296,-5.922261 2.675513,-11.581357 3.096369,-16.821686 0.04282,-0.544083 0.334178,-1.03804 0.788451,-1.341933 5.583906,-3.738617 7.764417,-9.525118 6.666851,-17.692638 -0.131582,-0.978515 0.554527,-1.877662 1.533042,-2.008201 0.956585,-0.131582 1.877663,0.554527 2.008201,1.531998 1.233326,9.174231 -1.292851,16.111557 -7.505429,20.638625 -0.480381,5.226753 -1.535131,10.820058 -3.144407,16.646243 -0.217215,0.791584 -0.937787,1.310604 -1.721016,1.310604 z m -5.958812,-3.036843 c -0.903325,0 -1.6782,-0.680887 -1.775321,-1.599877 -0.937787,-8.882869 -0.08668,-13.265823 0.736236,-17.503618 0.189019,-0.968072 1.128895,-1.605099 2.095923,-1.413991 0.968072,0.18902 1.60301,1.126807 1.412946,2.094879 -0.773831,3.980895 -1.573769,8.095462 -0.691331,16.448868 0.102342,0.980604 -0.607786,1.860954 -1.590478,1.963296 -0.06266,0.0063 -0.126361,0.01044 -0.187975,0.01044 z"
       fill="#d90000"
       data-fill-palette-color="accent"
       id="path18"
       style="stroke-width:1.04431;fill:#d40000" />
    <path
       d="m 69.983156,75.105874 c -0.810382,0 -1.545574,-0.555571 -1.737726,-1.381617 -0.223482,-0.962851 0.373862,-1.922568 1.333579,-2.14605 8.570622,-1.998802 12.923291,-3.98925 14.55032,-6.65432 0.825002,-1.350288 0.964939,-2.954342 0.440697,-5.050265 -0.238102,-0.956585 0.342532,-1.926745 1.301206,-2.166936 0.964939,-0.24019 1.926745,0.342533 2.166935,1.301206 0.761299,3.043109 0.480381,5.587039 -0.859464,7.779038 -2.201398,3.607034 -7.066821,6.003717 -16.787224,8.27195 -0.137848,0.03237 -0.273608,0.04699 -0.408323,0.04699 z"
       fill="#d90000"
       data-fill-palette-color="accent"
       id="path19"
       style="stroke-width:1.04431;fill:#d40000" />
    <path
       d="m 23.171081,92.259649 c -0.5869,0 -1.161268,-0.289273 -1.503801,-0.818736 -3.015956,-4.672227 -3.834692,-8.253153 -2.499025,-10.942242 1.180066,-2.377885 3.944345,-3.751148 8.213469,-4.075927 6.012072,-1.142471 9.750688,-6.098749 11.238825,-15.126777 0.159779,-0.974338 1.093388,-1.633295 2.052062,-1.473516 0.974337,0.159779 1.633295,1.079813 1.473516,2.052062 -1.735637,10.543316 -6.545712,16.627445 -14.298642,18.086341 -2.205575,0.178576 -4.754727,0.667311 -5.478431,2.125163 -0.697596,1.405636 0.12114,4.038333 2.302696,7.417708 0.53364,0.829179 0.295538,1.935099 -0.533641,2.470828 -0.299716,0.193197 -0.633894,0.285096 -0.967028,0.285096 z"
       fill="#d90000"
       data-fill-palette-color="accent"
       id="path20"
       style="stroke-width:1.04431;fill:#d40000" />
    <path
       d="m 58.397621,77.789741 c -3.157982,0 -6.281502,-1.371174 -9.320433,-4.091592 -3.034754,-2.926146 -6.439193,-4.261814 -10.203917,-4.074883 -0.976426,0.06788 -1.82858,-0.699686 -1.88184,-1.685511 -0.05535,-0.984781 0.699685,-1.82858 1.684466,-1.880795 4.782923,-0.276742 9.102174,1.424433 12.83348,5.023113 2.985672,2.673424 5.876312,3.630009 8.802458,2.888551 0.954496,-0.242279 1.928834,0.334178 2.173201,1.290763 0.244368,0.956584 -0.334178,1.928833 -1.290762,2.173201 -0.93361,0.238102 -1.86722,0.357153 -2.796653,0.357153 z"
       fill="#d90000"
       data-fill-palette-color="accent"
       id="path21"
       style="stroke-width:1.04431;fill:#d40000" />
    <path
       d="m 16.976256,90.770468 c -0.54826,0 -1.087122,-0.250633 -1.435921,-0.72266 -3.993427,-5.384443 -5.14843,-9.201383 -4.118744,-13.620887 0.12114,-0.521109 0.472027,-0.96285 0.954496,-1.197819 4.47903,-2.193043 6.120679,-4.967765 5.158873,-8.852585 C 9.4812701,69.392474 4.5584102,69.528234 2.1084676,66.81617 -0.44172837,63.9861 0.37491916,58.85229 4.6753725,50.669106 5.2925575,47.551852 4.33284,45.956152 2.3601454,44.135926 -1.1758757,40.947659 -0.72369107,35.65407 3.6122687,29.628423 c 0.4292099,-0.596299 1.1717117,-0.869907 1.892283,-0.688198 0.7122169,0.181709 1.2395916,0.780097 1.3314905,1.507978 0.5085772,4.021624 2.0311758,5.190203 3.9579208,6.669985 l 0.552438,0.427121 c 1.674023,1.260478 2.583614,2.986716 2.607633,4.971942 0.03655,3.146495 -2.152315,6.66163 -6.1739389,9.924043 -4.7056442,8.991477 -3.5026033,11.44142 -3.0170009,11.979238 0.5044,0.566014 2.9606084,2.084435 13.2104748,-2.048929 0.440697,-0.180665 0.931521,-0.172311 1.371174,0.01149 0.437564,0.186931 0.782186,0.539906 0.957629,0.981648 1.764878,4.415327 2.177379,10.477525 -5.554665,14.661016 -0.39997,2.548108 0.217215,5.250772 3.661338,9.892714 0.588988,0.791584 0.422944,1.912125 -0.369685,2.499025 -0.319558,0.238102 -0.693419,0.352975 -1.063104,0.352975 z M 4.4456251,35.203974 c -1.0181986,2.24317 -1.4400984,4.700423 0.323735,6.29299 1.5675037,1.446364 2.9877603,3.118299 3.4806729,5.531691 1.3711741,-1.62703 2.143961,-3.208109 2.129341,-4.470676 C 10.36893,41.685984 9.98567,40.993608 9.1690225,40.379556 L 8.6186731,39.954524 C 7.1472455,38.824584 5.543191,37.592303 4.4456251,35.203974 Z"
       fill="#d90000"
       data-fill-palette-color="accent"
       id="path22"
       style="stroke-width:1.04431;fill:#d40000" />
    <path
       d="m 18.640881,65.814681 c -0.833357,0 -1.580036,-0.586901 -1.750258,-1.434877 -1.135161,-5.650742 -0.410412,-10.184075 2.156493,-13.472596 2.870798,-3.677002 8.017139,-5.715488 15.29491,-6.056976 1.007755,-0.02611 1.822314,0.716394 1.869308,1.702219 0.0449,0.984781 -0.716394,1.822314 -1.701175,1.86722 -6.190648,0.289272 -10.444107,1.867219 -12.645505,4.686846 -1.898549,2.429057 -2.390417,5.985964 -1.469339,10.567336 0.195286,0.968072 -0.433387,1.910036 -1.39937,2.105321 -0.119051,0.02298 -0.238102,0.03551 -0.355064,0.03551 z"
       fill="#d90000"
       data-fill-palette-color="accent"
       id="path23"
       style="stroke-width:1.04431;fill:#d40000" />
    <path
       d="m 39.192829,92.259649 c -0.586901,0 -1.161269,-0.289273 -1.503801,-0.818736 -3.013868,-4.668049 -3.829472,-8.244798 -2.494848,-10.932843 1.175889,-2.366398 3.919281,-3.736528 8.158121,-4.076972 2.634784,-0.535729 4.760992,-1.715795 6.496629,-3.604945 0.6694,-0.728926 1.79934,-0.773831 2.524088,-0.106519 0.726838,0.667312 0.77592,1.797251 0.10652,2.523044 -2.258835,2.460386 -5.131721,4.044598 -8.53616,4.713999 -0.06997,0.01462 -0.139937,0.02506 -0.208861,0.0282 -2.033265,0.153513 -4.610613,0.646425 -5.339538,2.113676 -0.695508,1.401459 0.119051,4.032066 2.298518,7.40622 0.53364,0.829179 0.295538,1.9351 -0.533641,2.469784 -0.299716,0.193197 -0.633894,0.285096 -0.967027,0.285096 z"
       fill="#d90000"
       data-fill-palette-color="accent"
       id="path24"
       style="stroke-width:1.04431;fill:#d40000" />
    <path
       d="m 32.995915,90.770468 c -0.478292,0 -0.956585,-0.193196 -1.308516,-0.570191 -3.679091,-3.957921 -4.524979,-8.854673 -4.586593,-12.263289 -0.01671,-0.986869 0.769654,-1.801428 1.754435,-1.820226 0.01253,0 0.02297,0 0.03342,0 0.97225,0 1.769055,0.780097 1.786808,1.754435 0.04908,2.786209 0.718483,6.765016 3.630009,9.894802 0.671489,0.72266 0.629717,1.852599 -0.0919,2.526177 -0.345665,0.320602 -0.782185,0.478292 -1.217661,0.478292 z"
       fill="#d90000"
       data-fill-palette-color="accent"
       id="path25"
       style="stroke-width:1.04431;fill:#d40000" />
    <path
       d="m 81.122771,92.259649 c -0.155602,0 -0.316425,-0.02089 -0.476204,-0.06475 -0.950319,-0.263165 -1.507978,-1.245857 -1.244813,-2.198265 1.786808,-6.471566 3.057729,-18.76514 3.396084,-22.954897 0.08041,-0.98478 0.946142,-1.722061 1.924657,-1.637472 0.982692,0.08041 1.717884,0.941964 1.637472,1.924657 -0.34671,4.284788 -1.652093,16.879122 -3.515135,23.62012 -0.217216,0.791584 -0.937787,1.310604 -1.722061,1.310604 z m -5.72071,-3.036843 c -0.888705,0 -1.658358,-0.661046 -1.771144,-1.565415 -0.671488,-5.376089 -0.734147,-10.65819 -0.176487,-14.870922 0.129494,-0.978515 1.022376,-1.654181 2.005068,-1.536174 0.978515,0.129494 1.665668,1.025509 1.537219,2.004024 -0.516932,3.92137 -0.453229,8.878692 0.180665,13.960286 0.123228,0.978515 -0.57228,1.873486 -1.551839,1.994625 -0.07519,0.0094 -0.149336,0.01358 -0.223482,0.01358 z"
       fill="#d90000"
       data-fill-palette-color="accent"
       id="path26"
       style="stroke-width:1.04431;fill:#d40000" />
    <path
       d="m 89.938805,18.106592 c -0.404147,0 -0.808293,-0.136805 -1.143516,-0.41459 l -1.073547,-0.893926 c -0.75921,-0.630761 -0.861552,-1.757568 -0.229747,-2.515734 0.631805,-0.761299 1.758612,-0.85842 2.515734,-0.229747 l 1.073547,0.893926 c 0.75921,0.630761 0.861552,1.757567 0.229747,2.515734 -0.352975,0.423988 -0.861553,0.644337 -1.372218,0.644337 z"
       fill="#d90000"
       data-fill-palette-color="accent"
       id="path27"
       style="stroke-width:1.04431;fill:#d40000" />
    <path
       d="m 86.30253,61.228087 c -0.321646,0 -0.648514,-0.08772 -0.941964,-0.270475 -0.839622,-0.521109 -1.093389,-1.622852 -0.57228,-2.460386 2.728772,-4.382953 3.664471,-8.459925 2.777855,-12.116041 -1.048484,-4.323428 -4.686847,-8.37116 -10.813792,-12.030409 -0.847977,-0.505444 -1.124718,-1.60301 -0.619274,-2.449943 0.506489,-0.847976 1.607188,-1.123673 2.449943,-0.618229 6.985365,4.168871 11.175122,8.966414 12.45753,14.25687 1.12054,4.622099 0.03655,9.618061 -3.219597,14.845858 -0.338355,0.543039 -0.921078,0.842755 -1.518421,0.842755 z"
       fill="#d90000"
       data-fill-palette-color="accent"
       id="path28"
       style="stroke-width:1.04431;fill:#d40000" />
    <path
       d="m 72.307781,30.077475 c -0.399969,0 -0.804115,-0.134716 -1.137249,-0.408324 -3.578838,-2.95121 -6.574953,-8.323121 -0.514843,-17.161085 0.557659,-0.812471 1.669846,-1.024465 2.48336,-0.462628 0.814559,0.557659 1.022376,1.669846 0.463672,2.484404 -4.912417,7.164986 -2.443677,10.497367 -0.15769,12.381296 0.761299,0.627628 0.869907,1.754435 0.241235,2.515734 -0.352976,0.42921 -0.863642,0.650603 -1.378485,0.650603 z"
       fill="#d90000"
       data-fill-palette-color="accent"
       id="path29"
       style="stroke-width:1.04431;fill:#d40000" />
    <path
       d="m 81.758753,98.282163 c -1.110097,0 -2.294341,-0.05326 -3.498426,-0.108607 -0.876173,-0.03864 -1.682377,-0.07624 -2.31836,-0.07519 -0.693419,0 -1.329402,-0.305982 -1.793074,-0.860509 -1.869308,-2.241081 -0.516931,-10.044138 -0.503355,-10.122461 0.178576,-0.968072 1.10592,-1.600921 2.079214,-1.43801 0.97016,0.176488 1.614497,1.105921 1.438009,2.07817 -0.36133,1.984182 -0.537817,5.357291 -0.323735,6.783814 0.486647,0.01462 1.022376,0.03864 1.583169,0.06579 1.413991,0.0637 4.013269,0.178576 5.485741,0.0021 -0.55766,-0.531552 -1.605099,-1.378485 -3.566306,-2.628519 -0.831268,-0.529464 -1.077724,-1.633295 -0.546172,-2.466652 0.531551,-0.829179 1.633295,-1.079813 2.466651,-0.545128 3.935991,2.505291 6.407864,4.646119 5.684159,6.93315 -0.622406,1.967473 -3.1089,2.382062 -6.187515,2.382062 z"
       fill="#d90000"
       data-fill-palette-color="accent"
       id="path30"
       style="stroke-width:1.04431;fill:#d40000" />
    <path
       d="m 67.284668,98.282163 c -1.110097,0 -2.294341,-0.05326 -3.498426,-0.108607 -1.811871,-0.08041 -3.194533,0.129494 -4.085326,-0.906458 -1.719973,-1.996714 -0.79785,-8.76173 -0.595255,-10.098442 0.146203,-0.976427 1.046395,-1.662536 2.033265,-1.499624 0.976426,0.147247 1.647915,1.058927 1.499623,2.033264 -0.340443,2.247347 -0.495001,5.452324 -0.278829,6.837074 0.486646,0.01462 1.02342,0.03864 1.588389,0.06579 1.409814,0.0637 4.009092,0.180665 5.486786,0.0021 -0.55766,-0.531552 -1.605099,-1.378485 -3.566306,-2.628519 -0.831268,-0.529464 -1.077724,-1.633295 -0.546172,-2.466652 0.531551,-0.829179 1.633295,-1.079813 2.466651,-0.545128 3.93599,2.505291 6.407864,4.64403 5.684159,6.93315 -0.621362,1.967473 -3.1089,2.382062 -6.188559,2.382062 z"
       fill="#d90000"
       data-fill-palette-color="accent"
       id="path31"
       style="stroke-width:1.04431;fill:#d40000" />
    <path
       d="m 23.627443,98.282163 c -1.110097,0 -2.294341,-0.05326 -3.49947,-0.108607 -1.725194,-0.07624 -3.068172,0.151424 -3.949567,-0.810382 -1.371174,-1.495447 -1.204085,-5.990141 -0.98478,-8.534071 0.08668,-0.982692 0.958673,-1.707441 1.935099,-1.627029 0.982692,0.08668 1.711618,0.952407 1.627029,1.935099 -0.191108,2.177379 -0.139937,4.338049 0.03028,5.404285 0.465761,0.01671 0.972249,0.03864 1.504846,0.0637 1.411902,0.0637 4.01118,0.178576 5.484696,0.0021 -0.557659,-0.531552 -1.605098,-1.378485 -3.566306,-2.628519 -0.831268,-0.529464 -1.077724,-1.633295 -0.546172,-2.466652 0.531552,-0.829179 1.635384,-1.079813 2.466652,-0.545128 3.93599,2.505291 6.407863,4.646119 5.684159,6.93315 -0.622407,1.967473 -3.1089,2.382062 -6.186471,2.382062 z"
       fill="#d90000"
       data-fill-palette-color="accent"
       id="path32"
       style="stroke-width:1.04431;fill:#d40000" />
    <path
       d="m 39.64919,98.282163 c -1.110097,0 -2.29434,-0.05326 -3.49947,-0.108607 -1.727283,-0.07624 -3.068172,0.151424 -3.949566,-0.810382 -1.371175,-1.495447 -1.204086,-5.990141 -0.984781,-8.534071 0.08668,-0.982692 0.974338,-1.707441 1.935099,-1.627029 0.982693,0.08668 1.711618,0.952407 1.62703,1.935099 -0.191108,2.177379 -0.139937,4.338049 0.03028,5.404285 0.465761,0.01671 0.97225,0.03864 1.504846,0.0637 1.411902,0.0637 4.007003,0.180665 5.484697,0.0021 -0.555571,-0.531552 -1.605099,-1.378485 -3.566306,-2.626431 -0.831268,-0.531552 -1.077725,-1.635383 -0.548261,-2.46874 0.53364,-0.829179 1.637472,-1.073547 2.46874,-0.547216 3.93599,2.507379 6.409952,4.646118 5.686248,6.935238 -0.622407,1.967473 -3.1089,2.382062 -6.18856,2.382062 z"
       fill="#d90000"
       data-fill-palette-color="accent"
       id="path33"
       style="stroke-width:1.04431;fill:#d40000" />
  </g>
  <rect
     width="998.97418"
     height="537.32062"
     fill="none"
     stroke="none"
     visibility="hidden"
     id="rect38"
     x="0.51315552"
     y="0.34061295"
     style="stroke-width:2.66337" />
  <text
     xml:space="preserve"
     style="font-style:normal;font-variant:normal;font-weight:normal;font-stretch:normal;font-size:37.3333px;line-height:1.25;font-family:'Roboto Slab';-inkscape-font-specification:'Roboto Slab';font-variant-ligatures:none;fill:#d40000;filter:url(#filter44)"
     x="152.79355"
     y="196.89369"
     id="text40"><tspan
       sodipodi:role="line"
       id="tspan40"
       x="152.79355"
       y="196.89369"
       style="font-style:normal;font-variant:normal;font-weight:normal;font-stretch:normal;font-family:Roboto;-inkscape-font-specification:Roboto;fill:#d40000">SQL Sheet</tspan></text>
  <text
     xml:space="preserve"
     style="font-size:64px;line-height:0.85;font-family:'Century Gothic';-inkscape-font-specification:'Century Gothic, Normal';font-variant-ligatures:none;filter:url(#filter43)"
     x="153.33644"
     y="85.623459"
     id="text41"><tspan
       sodipodi:role="line"
       id="tspan41"
       x="153.33644"
       y="85.623459"
       style="font-style:normal;font-variant:normal;font-weight:800;font-stretch:normal;font-size:64px;line-height:0.85;font-family:'Roboto Slab';-inkscape-font-specification:'Roboto Slab, Ultra-Bold';font-variant-ligatures:none;font-variant-caps:normal;font-variant-numeric:normal;font-variant-east-asian:normal;fill:#000080">Excel</tspan><tspan
       sodipodi:role="line"
       x="153.33644"
       y="140.64076"
       id="tspan42"
       style="font-style:normal;font-variant:normal;font-weight:800;font-stretch:normal;font-size:64px;line-height:0.85;font-family:'Roboto Slab';-inkscape-font-specification:'Roboto Slab, Ultra-Bold';font-variant-ligatures:none;font-variant-caps:normal;font-variant-numeric:normal;font-variant-east-asian:normal;fill:#000080">JDBC</tspan></text>
</svg>
